<?xml version="1.0" encoding="utf-8"?>
<!-- Generator: Adobe Illustrator 27.8.1, SVG Export Plug-In . SVG Version: 6.00 Build 0)  -->
<svg version="1.0" id="Laag_1" xmlns="http://www.w3.org/2000/svg" xmlns:xlink="http://www.w3.org/1999/xlink" x="0px" y="0px"
	 viewBox="0 0 1920 1920" style="enable-background:new 0 0 1920 1920;" xml:space="preserve">
<style type="text/css">
	.st0{fill:#0E6D71;}
</style>
<g>
	<path class="st0" d="M1470.5,1046.88c-4.41-23.82-9.48-47.28-16.92-70.31c-12.09-37.42-27.77-73.22-49.37-106.08
		c-26.98-41.06-53.72-82.11-71.71-128.22c-12.6-32.29-22.44-65.34-27.62-99.53c-3.15-20.81-4.6-42.03-4.89-63.09
		c-0.38-27.16,0.53-54.41,7.39-81.01c3.42-13.25,6.72-26.53,9.87-39.84c0.53-2.25,0.08-4.74,0.08-9.47
		c-86.86,32.52-146.35,90.68-180.44,175.7c-1.54-2.03-2.05-3.04-2-4.03c2.37-51.01,0.96-101.88-8.88-152.09
		c-5.75-29.35-12.1-58.73-20.76-87.32c-12.91-42.65-32.06-82.62-57.44-119.54c-30.46-44.3-68.12-81.04-113.27-110.13
		c-6.91-4.45-14.16-8.37-23.19-13.68c0.59,5.73,0.58,8.75,1.26,11.6c2.89,12.24,7.96,24.32,8.6,36.65
		c1.55,29.79,2.73,59.55-5.42,89.14c-6.6,23.99-15.2,46.99-26.17,69.09c-21.75,43.85-50.44,83.33-78.77,123.02
		c-21.56,30.2-43.65,60.06-64.13,90.98c-30.74,46.42-58.71,94.53-77.66,147.17c-7.21,20.05-12.86,40.7-18.27,61.33
		c-3.4,12.98-5.26,26.38-7.41,39.66c-2.19,13.61-5.17,27.26-5.55,40.96c-0.97,35.23-1.45,70.52,5.88,105.37
		c4.69,22.29,7.52,45.07,13.62,66.95c8.55,30.68,19.29,60.75,29.29,91.01c2.7,8.16,6.11,16.09,10.07,26.39
		c-5.06-2.14-7.87-3.01-10.37-4.42c-29.07-16.47-50.82-40.54-69.2-67.84c-19.91-29.56-35.1-61.61-46.15-95.4
		c-7.81-23.87-14.69-48.15-20.17-72.65c-5.18-23.19-7.99-46.91-11.84-70.35c-0.42,0.69-1.24,1.76-1.76,2.96
		c-6.95,16.02-14.72,31.75-20.57,48.16c-6.8,19.07-12.75,38.55-17.52,58.22c-3.8,15.71-5.64,31.93-7.69,48.01
		c-2.38,18.6-4.67,37.26-5.76,55.96c-0.6,10.36,1.76,20.87,2.02,31.32c0.6,23.53,1.77,46.94,7.27,69.99
		c4,16.78,5.66,34.28,11.11,50.53c9.74,29.07,20.36,57.97,32.73,86.01c22.72,51.51,54.5,97.42,92.22,139.07
		c9.24,10.21,19.12,19.73,29.31,28.9l-49.72,248.63c-4.25,21.24,1.25,43.27,14.99,60.03c13.73,16.75,34.26,26.47,55.92,26.47h207.72
		c34.52,0,64.23-24.4,70.93-58.27l32.73-165.34h56.38c105.08,0,193.89-28.7,263.94-85.3c43.33-35,77.45-79.48,102.14-132.85
		c5.82-9.35,11.3-18.96,16.32-28.92c13.96-27.71,26.15-56.13,31.96-86.83c4.5-23.77,10.71-47.49,12.22-71.48
		C1478.08,1117.1,1476.97,1081.9,1470.5,1046.88z M1386.35,1151.39c0.37,21.59-1.24,43.53-6.98,64.76
		c-17.5,87.28-54.68,153.92-111.58,199.88c-57.14,46.17-129.96,69.24-218.5,69.24H933.51l-12.96,65.47l-31.31,158.14H681.52
		l43.04-215.2l115.87-579.35h297.4c11.89,0,23.34,0.58,34.46,1.62c-0.94-12.17-2.07-24.38-2.65-36.56
		c-0.48-9.95-0.58-19.88,0.17-29.73c0.16-2.15,0.51-4.29,0.74-6.44c2.25-21.45,7.3-42.88,13.46-63.59
		c7.12-23.94,17.52-46.91,26.68-70.23c1.07-2.73,3.34-4.99,6.17-9.07c1.98,8.99,4.28,16.05,4.99,23.26
		c5.04,50.65,22.74,96.25,45.97,139.71c8.64,16.16,18.02,32.04,27.83,47.76c1.62,2.59,3.25,5.18,4.87,7.77
		c17.62,28.11,35.45,56.19,50.43,85.69c8.49,16.72,15.04,34.72,20.27,52.96c10.1,27.41,15.21,57.99,15.21,91.81
		C1386.41,1149.98,1386.36,1150.69,1386.35,1151.39z"/>
	<path class="st1" d="M1093.56,1098.21h-85.13l-42,207.72h89.67c31.02,0,56.93-8.88,77.75-26.67c20.8-17.77,34.23-42.94,40.29-75.48
		c2.27-9.08,3.4-18.16,3.4-27.24c0-23.44-7.2-42.37-21.57-56.75C1141.6,1105.41,1120.79,1098.21,1093.56,1098.21z"/>
</g>
</svg>
